HIERARCHY
ROOT root
{
	OFFSET	0	13.1	24.9
	CHANNELS 6  Xposition Yposition Zposition Xrotation Yrotation Zrotation
	JOINT spine_1
	{
		OFFSET	0	9.99999	0
		CHANNELS 3  Xrotation Yrotation Zrotation
		JOINT spine_2
		{
			OFFSET	0	112	-10
			CHANNELS 3  Xrotation Yrotation Zrotation
			JOINT spine_3
			{
				OFFSET	0	206.5	19.3
				CHANNELS 3  Xrotation Yrotation Zrotation
				JOINT spine_4
				{
					OFFSET	0	110.4	14.6
					CHANNELS 3  Xrotation Yrotation Zrotation
					JOINT neck_1
					{
						OFFSET	0	71.8	-50.3
						CHANNELS 3  Xrotation Yrotation Zrotation
						JOINT neck_2
						{
							OFFSET	0	86.2	-25.8
							CHANNELS 3  Xrotation Yrotation Zrotation
							JOINT head_ee
							{
								OFFSET	0	179.8	-8.7
								CHANNELS 3  Xrotation Yrotation Zrotation
								End Site
								{
									OFFSET	1	0	0
								}
							}
						}
					}
					JOINT left_clavicle
					{
						OFFSET	-43.2	22.4	-70.8
						CHANNELS 3  Xrotation Yrotation Zrotation
						JOINT left_shoulder
						{
							OFFSET	-93.9	-5.79999	48.7
							CHANNELS 3  Xrotation Yrotation Zrotation
							JOINT left_elbow
							{
								OFFSET	-291.4	-30.8	15.2
								CHANNELS 3  Xrotation Yrotation Zrotation
								JOINT left_lowarm_twist
								{
									OFFSET	-110.7	-3.89999	13.6
									CHANNELS 3  Xrotation Yrotation Zrotation
									JOINT left_hand
									{
										OFFSET	-110.7	-3.89999	13.6
										CHANNELS 3  Xrotation Yrotation Zrotation
										JOINT left_ee
										{
											OFFSET	-80.8	-5.10001	12.1
											CHANNELS 3  Xrotation Yrotation Zrotation
											End Site
											{
												OFFSET	1	0	0
											}
										}
									}
								}
							}
						}
					}
					JOINT right_clavicle
					{
						OFFSET	43.2	22.4	-70.8
						CHANNELS 3  Xrotation Yrotation Zrotation
						JOINT right_shoulder
						{
							OFFSET	93.9	-5.79999	48.7
							CHANNELS 3  Xrotation Yrotation Zrotation
							JOINT right_elbow
							{
								OFFSET	291.4	-30.8	15.2
								CHANNELS 3  Xrotation Yrotation Zrotation
								JOINT right_lowarm_twist
								{
									OFFSET	110.7	-3.89999	13.6
									CHANNELS 3  Xrotation Yrotation Zrotation
									JOINT right_hand
									{
										OFFSET	110.7	-3.89999	13.6
										CHANNELS 3  Xrotation Yrotation Zrotation
										JOINT right_ee
										{
											OFFSET	80.8	-5.10001	12.1
											CHANNELS 3  Xrotation Yrotation Zrotation
											End Site
											{
												OFFSET	1	0	0
											}
										}
									}
								}
							}
						}
					}
				}
			}
		}
	}
	JOINT left_hip
	{
		OFFSET	-82.8	-127.5	0.300001
		CHANNELS 3  Xrotation Yrotation Zrotation
		JOINT left_knee
		{
			OFFSET	-28.2	-396.7	2.2
			CHANNELS 3  Xrotation Yrotation Zrotation
			JOINT left_ankle
			{
				OFFSET	-11.7	-411.3	35.4
				CHANNELS 3  Xrotation Yrotation Zrotation
				JOINT left_toes
				{
					OFFSET	0	-60	-88.6
					CHANNELS 3  Xrotation Yrotation Zrotation
					JOINT left_foot_ee
					{
						OFFSET	-22.5	-16.5	-42.2
						CHANNELS 3  Xrotation Yrotation Zrotation
						End Site
						{
							OFFSET	1	0	0
						}
					}
				}
			}
		}
	}
	JOINT right_hip
	{
		OFFSET	82.8	-127.5	0.300001
		CHANNELS 3  Xrotation Yrotation Zrotation
		JOINT right_knee
		{
			OFFSET	28.2	-396.7	2.2
			CHANNELS 3  Xrotation Yrotation Zrotation
			JOINT right_ankle
			{
				OFFSET	11.7	-411.3	35.4
				CHANNELS 3  Xrotation Yrotation Zrotation
				JOINT right_toes
				{
					OFFSET	0	-60	-88.6
					CHANNELS 3  Xrotation Yrotation Zrotation
					JOINT right_foot_ee
					{
						OFFSET	22.5	-16.5	-42.2
						CHANNELS 3  Xrotation Yrotation Zrotation
						End Site
						{
							OFFSET	1	0	0
						}
					}
				}
			}
		}
	}
}
MOTION
Frames: 15
Frame Time: 0.02
2557.77 732.889 -621.956 142.747 -77.972 152.768 -2.57772 -0.413532 -3.45669 -2.57109 -0.192872 -3.47597 -2.55165 0.695267 -3.41126 -2.56785 0.148138 -3.47816 -6.63187 7.19834 9.40227 -6.39776 6.48613 10.822 -0.0 0.0 -0.0 7.5733 17.3679 13.8835 5.27884 -42.0765 58.5097 1.51608 -36.905 0.505903 -25.5163 -1.5584 2.83885 -2.23497 23.1943 -3.6197 -0.0 0.0 -0.0 -2.92072 12.8084 7.70389 -0.0639637 18.0562 -77.9149 0.345779 9.71999 -0.0294006 -7.49408 0.323529 -0.901079 -0.00786604 10.2754 4.42289 0.0 0.0 0.0 -4.49327 0.719716 -6.31569 4.5936 -0.216235 -0.671423 28.5262 24.6031 -3.92609 -28.3555 0.0 0.0 -0.0 0.0 -0.0 7.61272 9.23788 -13.3064 -45.9296 0.88643 -6.80758 -1.95552 12.1832 -0.307234 -22.8515 0.0 0.0 0.0 0.0 0.0 
2567.04 738.87 -624.575 147.642 -77.0125 157.222 -2.5229 -0.405831 -3.36753 -2.51661 -0.19085 -3.3865 -2.49806 0.671373 -3.32483 -2.51346 0.138167 -3.38905 -8.29803 8.6927 10.8875 -7.99013 8.5775 12.643 -0.0 0.0 -0.0 7.63647 18.9274 13.8411 6.61822 -40.9072 58.5433 1.77779 -41.3655 0.671205 -28.4578 -1.81541 3.11468 -2.85723 19.5526 -9.19423 -0.0 0.0 -0.0 -2.96999 13.0494 7.84437 -0.727212 16.6874 -78.552 0.193635 5.47925 -0.00926582 -7.14955 0.306084 -0.860619 -0.24527 8.82649 5.4121 0.0 0.0 0.0 -6.90375 -0.736596 -5.90556 6.31269 -0.310929 -0.918014 26.7669 25.0058 -3.72484 -29.0327 0.0 0.0 -0.0 0.0 -0.0 10.341 7.42175 -13.9501 -40.5918 0.504847 -6.08092 -9.8617 13.1302 -1.58344 -24.2509 0.0 0.0 0.0 0.0 0.0 
2583.94 736.891 -625.946 152.075 -75.8496 161.673 -2.44109 -0.662973 -3.54451 -2.4342 -0.436231 -3.57945 -2.39838 0.476151 -3.57437 -2.41619 -0.0939497 -3.60468 -8.17752 10.3603 11.2032 -7.86054 11.4509 13.3004 -0.0 0.0 -0.0 7.71653 19.1955 13.9409 7.67352 -39.9744 57.3057 1.94413 -43.9174 0.783914 -29.1403 -1.87706 3.17678 -3.32065 16.6559 -13.6709 -0.0 0.0 -0.0 -2.39885 13.0673 6.62642 -3.62996 15.1127 -76.3084 0.195444 5.53011 -0.00943926 -5.90089 0.244907 -0.71313 -0.793374 1.25643 5.85454 0.0 0.0 0.0 -7.0205 -1.26119 -5.78252 5.7907 -0.281392 -0.843434 30.6536 26.5616 -4.22322 -33.1261 0.0 0.0 -0.0 0.0 -0.0 12.0841 9.87444 -14.7572 -37.593 0.320781 -5.65836 -15.5616 12.5544 -2.50463 -26.5864 0.0 0.0 0.0 0.0 0.0 
2595.69 739.163 -626.8 155.24 -74.7801 165.155 -2.34505 -0.823 -3.75895 -2.33738 -0.582319 -3.80361 -2.28896 0.383466 -3.82874 -2.30935 -0.225564 -3.84126 -8.20742 11.7948 10.749 -7.93032 14.4788 13.164 -0.0 0.0 -0.0 7.42463 19.109 13.4912 8.74158 -39.773 57.5398 2.09679 -46.0816 0.89188 -28.4772 -1.81716 3.11646 -3.25256 13.5833 -14.969 -0.0 0.0 -0.0 -2.45396 13.6487 6.82518 -5.84099 15.1137 -76.1186 0.189002 5.34891 -0.00882859 -5.82148 0.241125 -0.703705 -1.52075 -8.15418 6.46227 0.0 0.0 0.0 -8.57862 -0.468879 -5.70913 6.80958 -0.339677 -0.988759 32.8705 25.3329 -4.44043 -37.4496 0.0 0.0 -0.0 0.0 -0.0 12.9239 9.46884 -14.736 -36.8039 0.276052 -5.54564 -20.4865 16.1428 -3.39443 -25.2996 0.0 0.0 0.0 0.0 0.0 
2617.65 739.091 -629.675 155.267 -73.9757 165.041 -2.27775 -0.933142 -3.86172 -2.26972 -0.685713 -3.91317 -2.21251 0.305129 -3.96098 -2.23425 -0.32376 -3.95951 -7.81715 13.0708 11.2414 -7.51156 16.416 13.8766 -0.0 0.0 -0.0 6.919 19.2369 12.6917 10.3179 -40.2137 59.2337 2.19408 -47.3779 0.962725 -29.446 -1.90491 3.20436 -3.38269 11.4791 -17.0067 -0.0 0.0 -0.0 -2.63572 12.6865 7.07774 -7.90929 14.2062 -75.2621 0.217566 6.15151 -0.0116906 -4.66389 0.187491 -0.565756 -1.71715 -11.0489 6.37764 0.0 0.0 0.0 -11.517 -1.43982 -4.89527 6.56411 -0.325398 -0.95384 35.5363 24.0017 -4.69062 -39.5368 0.0 0.0 -0.0 0.0 -0.0 18.6931 10.02 -16.6078 -34.5907 0.158964 -5.22642 -22.0511 14.1609 -3.59868 -28.0767 0.0 0.0 0.0 0.0 0.0 
2642.77 735.729 -635.473 154.281 -73.7091 164.549 -2.24322 -1.00274 -4.08034 -2.23426 -0.741296 -4.13575 -2.16923 0.303198 -4.19061 -2.19355 -0.36184 -4.18596 -4.99915 13.2369 8.20863 -4.78263 18.2075 10.5998 -0.0 0.0 -0.0 6.89332 19.4212 12.6376 12.1519 -40.7646 60.085 2.34653 -49.2878 1.07662 -30.4022 -1.99298 3.28968 -3.57951 10.0297 -19.1554 -0.0 0.0 -0.0 -2.69898 10.8612 6.94699 -10.3343 13.5552 -73.5809 0.204471 5.78385 -0.0103291 -3.5782 0.139736 -0.435429 -2.25479 -18.144 6.2785 0.0 0.0 0.0 -14.1083 -1.51852 -4.35588 5.78702 -0.281186 -0.842908 39.2899 24.061 -5.06997 -40.0274 0.0 0.0 -0.0 0.0 -0.0 20.9634 12.9332 -17.227 -33.5468 0.108046 -5.07437 -21.7366 16.3485 -3.60801 -28.9874 0.0 0.0 0.0 0.0 0.0 
2659.18 729.756 -638.967 159.096 -72.6609 169.668 -1.96545 -0.952384 -4.30533 -1.95539 -0.676762 -4.35707 -1.89222 0.39942 -4.39112 -1.919 -0.298398 -4.39913 -5.77579 13.2331 8.08624 -5.58383 18.4869 10.5658 -0.0 0.0 -0.0 6.55785 19.4708 12.1162 13.7014 -40.6954 60.834 2.5058 -51.1366 1.19902 -31.0824 -2.05649 3.34947 -3.62682 8.96151 -20.0889 -0.0 0.0 -0.0 -2.8526 9.56169 7.07603 -12.1637 13.0543 -71.886 0.274893 7.75467 -0.0186312 -2.57879 0.0979695 -0.314688 -2.60781 -23.4883 5.61469 0.0 0.0 0.0 -14.1038 -0.405527 -3.85293 6.47402 -0.320195 -0.941011 41.9603 24.9734 -5.35126 -40.2129 0.0 0.0 -0.0 0.0 -0.0 22.2567 13.0282 -16.1617 -31.8594 0.0316324 -4.82673 -19.3433 19.1526 -3.28869 -29.4826 0.0 0.0 0.0 0.0 0.0 
2673.16 731.162 -643.109 159.125 -71.887 169.675 -1.94016 -0.869979 -4.45291 -1.92932 -0.585161 -4.49911 -1.87127 0.52142 -4.50693 -1.89955 -0.196153 -4.53269 -5.55522 12.0471 8.20329 -5.36155 16.1418 10.4475 -0.0 0.0 -0.0 6.51546 19.5227 12.0474 14.5698 -41.1715 61.8019 2.58174 -51.9691 1.2585 -28.7763 -1.84409 3.14376 -3.2683 7.90725 -18.211 -0.0 0.0 -0.0 -3.27242 8.28838 7.75712 -12.8437 11.9152 -71.2764 0.351348 9.8735 -0.0303483 -0.485756 0.0173684 -0.0596036 -2.37449 -26.5789 2.69338 0.0 0.0 0.0 -16.0115 -1.17029 -2.85009 7.2043 -0.362953 -1.04478 41.4598 26.0333 -5.34191 -39.753 0.0 0.0 -0.0 0.0 -0.0 23.1616 14.9074 -15.5951 -25.2511 -0.196476 -3.83877 -19.3574 22.1375 -3.38903 -30.9283 0.0 0.0 0.0 0.0 0.0 
2681.34 727.8 -644.634 160.561 -71.2237 170.635 -1.76026 -0.7454 -4.46566 -1.74929 -0.460024 -4.50393 -1.70189 0.631103 -4.4832 -1.72992 -0.0841025 -4.52653 -5.64096 12.2076 7.80843 -5.46304 16.756 10.0888 -0.0 0.0 -0.0 6.3359 19.6596 11.763 15.9681 -41.3196 62.8417 2.76535 -53.8609 1.405 -31.5589 -2.10141 3.39091 -3.52865 10.6794 -18.4397 -0.0 0.0 -0.0 -3.31732 7.68076 7.75278 -13.7014 12.271 -70.6786 0.336213 9.45602 -0.0278073 1.03289 -0.0352462 0.127208 -2.2493 -28.5273 1.02559 0.0 0.0 0.0 -16.1173 -0.201359 -1.81506 7.26642 -0.366651 -1.05359 42.0663 25.6501 -5.38462 -39.5478 0.0 0.0 -0.0 0.0 -0.0 24.0417 14.7023 -15.3926 -14.6174 -0.320913 -2.21418 -12.6175 22.3587 -2.2035 -32.2549 0.0 0.0 0.0 0.0 0.0 
2693.34 729.53 -647.749 161.821 -70.0033 171.905 -1.74103 -0.564857 -4.52186 -1.72971 -0.276279 -4.54857 -1.69691 0.820381 -4.48263 -1.72492 0.102904 -4.55577 -5.98194 11.8362 6.73455 -5.85087 16.9415 8.98366 -0.0 0.0 -0.0 6.28554 19.6854 11.6844 16.9934 -41.3654 63.6974 2.86834 -54.8522 1.48869 -31.7403 -2.11859 3.40658 -3.58687 7.72411 -20.5127 -0.0 0.0 -0.0 -3.20443 7.42503 7.47641 -13.984 11.9756 -70.0654 0.324851 9.14195 -0.0259714 1.06957 -0.0364554 0.131737 -2.52509 -28.7607 2.39061 0.0 0.0 0.0 -17.5051 -0.718314 -1.13718 7.3449 -0.371337 -1.0647 42.3782 26.0376 -5.42734 -38.9853 0.0 0.0 -0.0 0.0 -0.0 24.2154 15.8336 -15.249 -7.6418 -0.238384 -1.14769 -11.9898 24.4522 -2.1409 -32.791 0.0 0.0 0.0 0.0 0.0 
2707.14 721.964 -647.937 163.434 -69.6163 172.862 -1.78997 -0.563523 -4.36812 -1.7794 -0.284701 -4.39506 -1.74723 0.779141 -4.33492 -1.77344 0.0854352 -4.40343 -5.59599 11.5451 7.13899 -5.44499 16.0167 9.29452 -0.0 0.0 -0.0 6.47771 20.88 11.8959 18.5908 -40.4307 63.7137 2.98273 -55.8989 1.58283 -31.5954 -2.10485 3.39406 -3.54278 7.58549 -20.2836 -0.0 0.0 -0.0 -3.28438 7.14458 7.59696 -14.5516 11.4478 -69.9287 0.32475 9.13915 -0.0259552 3.37807 -0.106713 0.418218 -1.81696 -28.5193 -1.29935 0.0 0.0 0.0 -17.3354 1.47538 0.290423 7.4094 -0.3752 -1.07383 42.7067 25.2548 -5.42909 -37.5089 0.0 0.0 -0.0 0.0 -0.0 24.6369 16.0354 -14.7999 -1.48831 -0.0584141 -0.220927 -5.59859 24.5923 -0.990643 -32.4143 0.0 0.0 0.0 0.0 0.0 
2724.95 718.592 -648.64 163.739 -69.1733 172.775 -1.7825 -0.536006 -4.28238 -1.77234 -0.262679 -4.30775 -1.74273 0.779212 -4.24494 -1.76785 0.0996752 -4.31458 -6.25575 11.2192 7.20882 -6.11653 15.5015 9.37074 -0.0 0.0 -0.0 7.0411 21.1477 12.7196 19.177 -40.4995 63.1177 2.97845 -55.8607 1.57928 -31.8518 -2.12918 3.41619 -3.46126 7.51693 -19.7556 -0.0 0.0 -0.0 -3.50194 6.78834 7.98966 -14.6217 10.6763 -70.5092 0.355417 9.98555 -0.0310499 3.75331 -0.117038 0.465038 -1.81291 -28.6112 -1.3643 0.0 0.0 0.0 -18.4691 1.01241 1.09045 7.03829 -0.353116 -1.02124 42.9791 24.8881 -5.44076 -36.7111 0.0 0.0 -0.0 0.0 -0.0 25.2745 16.8215 -15.0506 4.71386 0.222617 0.688763 -1.64586 25.3756 -0.291134 -31.4125 0.0 0.0 0.0 0.0 0.0 
2739.9 714.61 -646.004 163.962 -68.8625 172.675 -1.77905 -0.539904 -4.11857 -1.76966 -0.276965 -4.14452 -1.74044 0.725847 -4.08994 -1.76377 0.0713882 -4.15313 -5.59247 11.1743 7.20193 -5.44155 15.281 9.29123 -0.0 0.0 -0.0 7.60915 21.9191 13.4935 18.9128 -39.776 62.5958 3.01915 -56.2207 1.61305 -31.7961 -2.12389 3.4114 -3.57468 7.50227 -20.5524 -0.0 0.0 -0.0 -3.62243 6.60909 8.20949 -14.9592 10.0877 -70.737 0.378344 10.6155 -0.0351495 4.87183 -0.145995 0.604982 -1.60408 -28.8375 -2.59122 0.0 0.0 0.0 -19.2791 1.54972 1.74043 6.79107 -0.338596 -0.986129 43.2076 24.5154 -5.44829 -35.9003 0.0 0.0 -0.0 0.0 -0.0 25.1353 17.4265 -14.3557 6.42366 0.317296 0.933835 4.33665 25.1975 0.751667 -30.9572 0.0 0.0 0.0 0.0 0.0 
2757.74 712.388 -643.733 163.826 -69.4385 172.126 -1.95729 -0.63785 -4.03002 -1.94834 -0.380334 -4.06237 -1.91183 0.617569 -4.03317 -1.93452 -0.0265947 -4.08001 -5.48911 10.6438 7.05127 -5.34468 14.3887 9.03632 -0.0 0.0 -0.0 7.15715 23.4376 12.6731 20.9924 -38.2052 65.1268 3.21828 -57.8888 1.78017 -32.4195 -2.18339 3.4648 -3.23695 4.3358 -19.9161 -0.0 0.0 -0.0 -3.62853 6.02163 8.1222 -15.0029 9.41357 -71.659 0.411603 11.5246 -0.0415357 6.31713 -0.179355 0.786589 -1.34187 -28.2943 -3.76351 0.0 0.0 0.0 -20.0412 1.09335 2.47625 6.24824 -0.307245 -0.908819 42.398 23.4173 -5.34007 -33.1042 0.0 0.0 -0.0 0.0 -0.0 25.9442 17.5451 -14.3177 7.41025 0.375251 1.07395 8.15719 25.1748 1.39357 -29.9281 0.0 0.0 0.0 0.0 0.0 
2774.91 708.453 -642.826 163.179 -69.9321 170.825 -1.98291 -0.560832 -4.00718 -1.97403 -0.304921 -4.03468 -1.94328 0.686357 -3.98763 -1.96546 0.048509 -4.04588 -3.66262 10.91 7.29306 -3.48296 14.3042 9.17887 -0.0 0.0 -0.0 7.84258 23.1651 13.6952 19.7661 -37.7254 64.2952 3.35635 -58.9613 1.89781 -32.3137 -2.17325 3.45578 -3.22327 7.065 -18.3587 -0.0 0.0 -0.0 -3.78079 6.68318 8.55094 -14.8694 7.99816 -72.793 0.357585 10.0452 -0.031427 8.83525 -0.226493 1.10477 -1.0805 -28.2129 -5.1469 0.0 0.0 0.0 -21.4468 1.99298 3.36263 6.11384 -0.299596 -0.889634 42.4968 20.3092 -5.26059 -33.2786 0.0 0.0 -0.0 0.0 -0.0 27.1591 17.7872 -13.5404 2.91744 0.131088 0.428415 14.9798 25.5102 2.49204 -29.5031 0.0 0.0 0.0 0.0 0.0 
